# xmcd
#
# Track frame offsets:
#	300
#	15376
#	37720
#	55032
#	69616
#	92716
#	109468
#	126164
#	137180
#	153432
#
# Disc length: 2229 seconds
#
# Revision: 0
# Processed by: cddbd v1.5.1PL0 Copyright (c) Steve Scherf et al.
# Submitted via: audiograbber 1.83.01
#
DISCID=8108b10a
DTITLE=The Flying Burrito Bros. - The Flying Burrito Bros.
DYEAR=1971
DGENRE=Country
TTITLE0=White Line Fever
TTITLE1=Colorado
TTITLE2=Hand To Mouth
TTITLE3=Tried So Hard
TTITLE4=Just Can't Be
TTITLE5=To Ramona
TTITLE6=Four Days Of Rain
TTITLE7=Can't You Hear Me Calling
TTITLE8=All Alone
TTITLE9=Why Are You Crying
EXTD=
EXTT0=
EXTT1=
EXTT2=
EXTT3=
EXTT4=
EXTT5=
EXTT6=
EXTT7=
EXTT8=
EXTT9=
PLAYORDER=
